<svg xmlns="http://www.w3.org/2000/svg" viewBox="0 0 130 100" width="130" height="100" preserveAspectRatio="xMidYMid meet" style="width: 100%; height: 100%; transform: translate3d(0px, 0px, 0px);"><defs><clipPath id="__lottie_element_72"><rect width="130" height="100" x="0" y="0"></rect></clipPath></defs><g clip-path="url(#__lottie_element_72)"><g style="display: block;" transform="matrix(1.1383333206176758,0,0,1.1383333206176758,-8.991668701171875,-6.916664123535156)" opacity="0.3645833333316397"><g opacity="1" transform="matrix(1,0,0,1,88.23600006103516,49.74100112915039)"><path fill="rgb(185,118,0)" fill-opacity="1" d=" M-3.63700008392334,-30.92799949645996 C-4.86899995803833,-32.14699935913086 -6.861999988555908,-32.14099884033203 -8.081000328063965,-30.909000396728516 C-9.300000190734863,-29.677000045776367 -9.293999671936035,-27.68400001525879 -8.062000274658203,-26.46500015258789 C-0.921999990940094,-19.381999969482422 3.01200008392334,-9.928000450134277 3.01200008392334,0.15399999916553497 C3.01200008392334,10.236000061035156 -0.921999990940094,19.68899917602539 -8.062000274658203,26.773000717163086 C-9.293999671936035,27.992000579833984 -9.300000190734863,29.985000610351562 -8.081000328063965,31.215999603271484 C-7.465000152587891,31.839000701904297 -6.659999847412109,32.14699935913086 -5.849999904632568,32.14699935913086 C-5.051000118255615,32.14699935913086 -4.252999782562256,31.844999313354492 -3.63700008392334,31.236000061035156 C4.703999996185303,22.964000701904297 9.298999786376953,11.925999641418457 9.298999786376953,0.15399999916553497 C9.298999786376953,-11.619000434875488 4.703999996185303,-22.6560001373291 -3.63700008392334,-30.92799949645996z"></path></g></g><g transform="matrix(1.092187523841858,0,0,1.092187523841858,-5.9921875,-4.609375)" opacity="0.10576923076766746" style="display: block;"><g opacity="1" transform="matrix(1,0,0,1,77.51599884033203,49.73400115966797)"><path fill="rgb(185,118,0)" fill-opacity="1" d=" M-1.7790000438690186,-22.065000534057617 C-3.0169999599456787,-23.291000366210938 -5.004000186920166,-23.27199935913086 -6.2230000495910645,-22.040000915527344 C-7.442999839782715,-20.802000045776367 -7.429999828338623,-18.815000534057617 -6.197999954223633,-17.59600067138672 C-1.4529999494552612,-12.901000022888184 1.1629999876022339,-6.5970001220703125 1.1629999876022339,0.1599999964237213 C1.1629999876022339,6.916999816894531 -1.4529999494552612,13.222000122070312 -6.197999954223633,17.91699981689453 C-7.435999870300293,19.13599967956543 -7.448999881744385,21.121999740600586 -6.2230000495910645,22.360000610351562 C-5.60699987411499,22.98200035095215 -4.796999931335449,23.291000366210938 -3.992000102996826,23.291000366210938 C-3.194000005722046,23.291000366210938 -2.3949999809265137,22.98900032043457 -1.7790000438690186,22.3799991607666 C4.172999858856201,16.503000259399414 7.448999881744385,8.61400032043457 7.448999881744385,0.1599999964237213 C7.448999881744385,-8.293999671936035 4.172999858856201,-16.18199920654297 -1.7790000438690186,-22.065000534057617z"></path></g></g><g transform="matrix(1,0,0,1,0,0)" opacity="1" style="display: block;"><g opacity="1" transform="matrix(1,0,0,1,31.538000106811523,49.78799819946289)"><path fill="rgb(185,118,0)" fill-opacity="1" d=" M26.5049991607666,-43.58300018310547 C25.410999298095703,-44.10499954223633 24.124000549316406,-43.96699905395508 23.18199920654297,-43.20600128173828 C23.18199920654297,-43.20600128173828 -7.390999794006348,-18.749000549316406 -7.390999794006348,-18.749000549316406 C-7.390999794006348,-18.749000549316406 -21.999000549316406,-18.749000549316406 -21.999000549316406,-18.749000549316406 C-25.461999893188477,-18.749000549316406 -28.28499984741211,-15.928000450134277 -28.28499984741211,-12.46399974822998 C-28.28499984741211,-12.46399974822998 -28.28499984741211,12.678000450134277 -28.28499984741211,12.678000450134277 C-28.28499984741211,16.141000747680664 -25.461999893188477,18.96299934387207 -21.999000549316406,18.96299934387207 C-21.999000549316406,18.96299934387207 -7.390999794006348,18.96299934387207 -7.390999794006348,18.96299934387207 C-7.390999794006348,18.96299934387207 23.173999786376953,43.41999816894531 23.173999786376953,43.41999816894531 C23.746000289916992,43.87200164794922 24.444000244140625,44.10499954223633 25.14299964904785,44.10499954223633 C25.60700035095215,44.10499954223633 26.070999145507812,44.00400161743164 26.5049991607666,43.797000885009766 C27.593000411987305,43.26900100708008 28.28499984741211,42.16899871826172 28.28499984741211,40.96200180053711 C28.28499984741211,40.96200180053711 28.28499984741211,-40.749000549316406 28.28499984741211,-40.749000549316406 C28.28499984741211,-41.95600128173828 27.593000411987305,-43.055999755859375 26.5049991607666,-43.58300018310547z M-9.428000450134277,12.678000450134277 C-9.428000450134277,12.678000450134277 -21.999000549316406,12.678000450134277 -21.999000549316406,12.678000450134277 C-21.999000549316406,12.678000450134277 -21.999000549316406,-12.46399974822998 -21.999000549316406,-12.46399974822998 C-21.999000549316406,-12.46399974822998 -9.428000450134277,-12.46399974822998 -9.428000450134277,-12.46399974822998 C-9.428000450134277,-12.46399974822998 -9.428000450134277,12.678000450134277 -9.428000450134277,12.678000450134277z M21.999000549316406,34.41899871826172 C21.999000549316406,34.41899871826172 -3.1429998874664307,14.305999755859375 -3.1429998874664307,14.305999755859375 C-3.1429998874664307,14.305999755859375 -3.1429998874664307,-14.092000007629395 -3.1429998874664307,-14.092000007629395 C-3.1429998874664307,-14.092000007629395 21.999000549316406,-34.20600128173828 21.999000549316406,-34.20600128173828 C21.999000549316406,-34.20600128173828 21.999000549316406,34.41899871826172 21.999000549316406,34.41899871826172z"></path></g></g></g></svg>