<svg xmlns="http://www.w3.org/2000/svg" viewBox="0 0 80 110" width="80" height="110" preserveAspectRatio="xMidYMid meet" style="width: 100%; height: 100%; transform: translate3d(0px, 0px, 0px);"><defs><clipPath id="__lottie_element_98"><rect width="80" height="110" x="0" y="0"></rect></clipPath></defs><g clip-path="url(#__lottie_element_98)"><g transform="matrix(1,0,0,1,1.5,2.5)" opacity="1" style="display: block;"><g opacity="1" transform="matrix(1,0,0,1,37.7869987487793,57.72100067138672)"><path stroke-linecap="round" stroke-linejoin="miter" fill-opacity="0" stroke-miterlimit="10" stroke="rgb(185,118,0)" stroke-opacity="1" stroke-width="5" d=" M-15.368000030517578,-0.34700000286102295 C-15.368000030517578,-0.34700000286102295 -4.968999862670898,9.822999954223633 -4.968999862670898,9.822999954223633 C-4.968999862670898,9.822999954223633 15.368000030517578,-9.822999954223633 15.368000030517578,-9.822999954223633"></path></g></g><g transform="matrix(1,0,0,1,1.5,2.5)" opacity="1" style="display: block;"><g opacity="1" transform="matrix(1,0,0,1,37.90299987792969,15.944000244140625)"><path stroke-linecap="round" stroke-linejoin="miter" fill-opacity="0" stroke-miterlimit="10" stroke="rgb(185,118,0)" stroke-opacity="1" stroke-width="5" d=" M17.10300064086914,-6.309999942779541 C17.10300064086914,-6.309999942779541 17.10300064086914,-3.5209999084472656 17.10300064086914,-3.5209999084472656 C17.10300064086914,2.0309998989105225 12.60200023651123,6.5320000648498535 7.048999786376953,6.5320000648498535 C7.048999786376953,6.5320000648498535 -7.047999858856201,6.5320000648498535 -7.047999858856201,6.5320000648498535 C-12.60099983215332,6.5320000648498535 -17.10300064086914,2.0309998989105225 -17.10300064086914,-3.5209999084472656 C-17.10300064086914,-3.5209999084472656 -17.10300064086914,-6.5320000648498535 -17.10300064086914,-6.5320000648498535"></path></g><g opacity="1" transform="matrix(1,0,0,1,38.30699920654297,52.11600112915039)"><path stroke-linecap="round" stroke-linejoin="miter" fill-opacity="0" stroke-miterlimit="10" stroke="rgb(185,118,0)" stroke-opacity="1" stroke-width="5" d=" M28.604000091552734,-43.04499816894531 C28.604000091552734,-43.04499816894531 8.97700023651123,-43.04499816894531 8.97700023651123,-43.04499816894531 C8.211999893188477,-47.31399917602539 4.488999843597412,-50.55500030517578 0,-50.55500030517578 C-4.488999843597412,-50.55500030517578 -8.213000297546387,-47.31399917602539 -8.977999687194824,-43.04499816894531 C-8.977999687194824,-43.04499816894531 -28.604000091552734,-43.04499816894531 -28.604000091552734,-43.04499816894531 C-33.10200119018555,-43.04499816894531 -36.74700164794922,-39.39899826049805 -36.74700164794922,-34.902000427246094 C-36.74700164794922,-34.902000427246094 -36.74700164794922,42.41299819946289 -36.74700164794922,42.41299819946289 C-36.74700164794922,46.90999984741211 -33.10200119018555,50.55500030517578 -28.604000091552734,50.55500030517578 C-28.604000091552734,50.55500030517578 28.604000091552734,50.55500030517578 28.604000091552734,50.55500030517578 C33.10100173950195,50.55500030517578 36.74700164794922,46.90999984741211 36.74700164794922,42.41299819946289 C36.74700164794922,42.41299819946289 36.74700164794922,-34.902000427246094 36.74700164794922,-34.902000427246094 C36.74700164794922,-39.39899826049805 33.10100173950195,-43.04499816894531 28.604000091552734,-43.04499816894531z"></path></g></g></g></svg>