<svg xmlns="http://www.w3.org/2000/svg" viewBox="0 0 50 50" width="50" height="50" preserveAspectRatio="xMidYMid meet" style="width: 100%; height: 100%; transform: translate3d(0px, 0px, 0px);"><defs><clipPath id="__lottie_element_22"><rect width="50" height="50" x="0" y="0"></rect></clipPath><filter id="__lottie_element_30" filterUnits="objectBoundingBox" x="0%" y="0%" width="100%" height="100%"><feComponentTransfer in="SourceGraphic"><feFuncA type="table" tableValues="1.0 0.0"></feFuncA></feComponentTransfer></filter><mask id="__lottie_element_29" mask-type="alpha"><g filter="url(#__lottie_element_30)"><rect width="50" height="50" x="0" y="0" fill="#ffffff" opacity="0"></rect><g transform="matrix(1,0,0,1,102.25,-210.43701171875)" opacity="1" style="display: block;"><g opacity="1" transform="matrix(1,0,0,1,-76.96900177001953,235.031005859375)"><path fill="rgb(185,118,0)" fill-opacity="1" d=" M0,-15 C8.278499603271484,-15 15,-8.278499603271484 15,0 C15,8.278499603271484 8.278499603271484,15 0,15 C-8.278499603271484,15 -15,8.278499603271484 -15,0 C-15,-8.278499603271484 -8.278499603271484,-15 0,-15z"></path></g></g></g></mask></defs><g clip-path="url(#__lottie_element_22)"><g mask="url(#__lottie_element_29)" style="display: block;"><g transform="matrix(0.7199622988700867,0,0,0.7199622988700867,79.71405792236328,-148.94398498535156)" opacity="0.619089629984606"><g opacity="1" transform="matrix(1,0,0,1,-76.01100158691406,241.23899841308594)"><path fill="rgb(185,118,0)" fill-opacity="1" d=" M0,-18.73900032043457 C10.34205436706543,-18.73900032043457 18.73900032043457,-10.34205436706543 18.73900032043457,0 C18.73900032043457,10.34205436706543 10.34205436706543,18.73900032043457 0,18.73900032043457 C-10.34205436706543,18.73900032043457 -18.73900032043457,10.34205436706543 -18.73900032043457,0 C-18.73900032043457,-10.34205436706543 -10.34205436706543,-18.73900032043457 0,-18.73900032043457z"></path></g></g></g><g transform="matrix(1,0,0,1,102.25,-210.43701171875)" opacity="0.2" style="display: block;"><g opacity="1" transform="matrix(1,0,0,1,-76.96900177001953,235.031005859375)"><path fill="rgb(185,118,0)" fill-opacity="1" d=" M0,-15 C8.278499603271484,-15 15,-8.278499603271484 15,0 C15,8.278499603271484 8.278499603271484,15 0,15 C-8.278499603271484,15 -15,8.278499603271484 -15,0 C-15,-8.278499603271484 -8.278499603271484,-15 0,-15z"></path></g></g><g transform="matrix(0.9829871654510498,0,0,0.9829871654510498,18.10207748413086,18.119091033935547)" opacity="1" style="display: block;"><g opacity="1" transform="matrix(1,0,0,1,6,6.631999969482422)"><path fill="rgb(185,118,0)" fill-opacity="1" d=" M6,-6.175000190734863 C6,-6.328999996185303 5.923999786376953,-6.4679999351501465 5.816999912261963,-6.545000076293945 C5.696000099182129,-6.63700008392334 5.544000148773193,-6.6529998779296875 5.4070000648498535,-6.60699987411499 C5.4070000648498535,-6.60699987411499 -2.0480000972747803,-4.923999786376953 -2.0480000972747803,-4.923999786376953 C-2.2309999465942383,-4.86299991607666 -2.3529999256134033,-4.677000045776367 -2.3529999256134033,-4.492000102996826 C-2.3529999256134033,-4.492000102996826 -2.3529999256134033,2.1072306632995605 -2.3529999256134033,2.1072306632995605 C-2.7320001125335693,1.8142307996749878 -3.2039999961853027,1.6442307233810425 -3.7200000286102295,1.6442307233810425 C-4.98199987411499,1.6442307233810425 -6,2.6782307624816895 -6,3.95823073387146 C-6,5.2382307052612305 -4.98199987411499,6.27323055267334 -3.7200000286102295,6.27323055267334 C-2.503999948501587,6.27323055267334 -1.5010000467300415,5.284230709075928 -1.4559999704360962,4.0512309074401855 C-1.4559999704360962,4.0512309074401855 -1.4559999704360962,3.9882307052612305 -1.4559999704360962,3.9882307052612305 C-1.4559999704360962,3.9882307052612305 -1.4559999704360962,-2.7330000400543213 -1.4559999704360962,-2.7330000400543213 C-1.4559999704360962,-2.7330000400543213 5.0879998207092285,-4.10699987411499 5.0879998207092285,-4.10699987411499 C5.0879998207092285,-4.10699987411499 5.0879998207092285,1.4707692861557007 5.0879998207092285,1.4707692861557007 C4.708000183105469,1.1777691841125488 4.236999988555908,1.0087692737579346 3.7209999561309814,1.0087692737579346 C2.4590001106262207,1.0087692737579346 1.440000057220459,2.042769193649292 1.440000057220459,3.3227691650390625 C1.440000057220459,4.602769374847412 2.4590001106262207,5.6367692947387695 3.7209999561309814,5.6367692947387695 C4.936999797821045,5.6367692947387695 5.939000129699707,4.648769378662109 5.984000205993652,3.415769338607788 C5.984000205993652,3.415769338607788 5.984000205993652,3.352769136428833 5.984000205993652,3.352769136428833 C5.984000205993652,3.352769136428833 5.984000205993652,-6.175000190734863 5.984000205993652,-6.175000190734863 C5.984000205993652,-6.175000190734863 6,-6.175000190734863 6,-6.175000190734863z"></path></g></g></g></svg>